<?xml version="1.0" encoding="utf-8" ?>
<svg xmlns="http://www.w3.org/2000/svg" xmlns:xlink="http://www.w3.org/1999/xlink" width="24" height="24" viewBox="0 0 24 24">
	<defs>
		<clipPath id="clipPath3295655481">
			<path d="M0 0L24 0L24 24L0 24L0 0Z" fill-rule="nonzero" transform="matrix(1 0 0 1 -0 -0)"/>
		</clipPath>
	</defs>
	<g clip-path="url(#clipPath3295655481)">
		<path d="M9 0.75Q7.32181 0.75 5.78982 1.39823Q4.3095 2.0246 3.16705 3.16705Q2.0246 4.3095 1.39823 5.78982Q0.75 7.32181 0.75 9Q0.75 10.6782 1.39823 12.2102Q2.0246 13.6905 3.16705 14.833Q4.3095 15.9754 5.78982 16.6018Q7.32181 17.25 9 17.25Q10.6782 17.25 12.2102 16.6018Q13.6905 15.9754 14.833 14.833Q15.9754 13.6905 16.6018 12.2102Q17.25 10.6782 17.25 9Q17.25 7.32181 16.6018 5.78982Q15.9754 4.3095 14.833 3.16705Q13.6905 2.0246 12.2102 1.39823Q10.6782 0.75 9 0.75ZM9 -0.75Q10.9825 -0.75 12.7947 0.0168071Q14.5444 0.75714 15.8936 2.10639Q17.2429 3.45564 17.9832 5.2053Q18.75 7.01753 18.75 9Q18.75 10.9825 17.9832 12.7947Q17.2429 14.5444 15.8936 15.8936Q14.5444 17.2429 12.7947 17.9832Q10.9825 18.75 9 18.75Q7.01753 18.75 5.2053 17.9832Q3.45564 17.2429 2.10639 15.8936Q0.757141 14.5444 0.0168071 12.7947Q-0.75 10.9825 -0.75 9Q-0.75 7.01753 0.0168071 5.2053Q0.757139 3.45564 2.10639 2.10639Q3.45564 0.75714 5.2053 0.0168071Q7.01753 -0.75 9 -0.75Z" fill-rule="nonzero" transform="matrix(1 0 0 1 3 3)" fill="rgb(26, 26, 26)"/>
		<path d="M0 -0.75C-0.41421 -0.75 -0.75 -0.41421 -0.75 0L-0.75 6.75Q-0.75 6.82387 -0.735589 6.89632Q-0.721178 6.96877 -0.69291 7.03701Q-0.664641 7.10526 -0.623602 7.16668Q-0.582563 7.2281 -0.53033 7.28033Q-0.478097 7.33256 -0.416678 7.3736Q-0.355258 7.41464 -0.287013 7.44291Q-0.218767 7.47118 -0.146318 7.48559Q-0.0738685 7.5 0 7.5L4.5 7.5C4.91421 7.5 5.25 7.16421 5.25 6.75C5.25 6.33579 4.91421 6 4.5 6L0.75 6L0.75 0C0.75 -0.41421 0.41421 -0.75 0 -0.75Z" fill-rule="evenodd" transform="matrix(1 0 0 1 12 6)" fill="rgb(26, 26, 26)"/>
	</g>
</svg>
