<?xml version="1.0" encoding="utf-8" ?>
<svg xmlns="http://www.w3.org/2000/svg" xmlns:xlink="http://www.w3.org/1999/xlink" width="24" height="24" viewBox="0 0 24 24">
	<defs>
		<clipPath id="clipPath9116156193">
			<path d="M0 0L24 0L24 24L0 24L0 0Z" fill-rule="nonzero" transform="matrix(1 0 0 1 -0 -0)"/>
		</clipPath>
	</defs>
	<g clip-path="url(#clipPath9116156193)">
		<path d="M15.75 8.12109L15.75 17.25Q15.75 18.4926 14.8713 19.3713Q13.9926 20.25 12.75 20.25L2.25 20.25Q1.00736 20.25 0.128679 19.3713Q-0.75 18.4926 -0.75 17.25L-0.75 2.25Q-0.75 1.00736 0.128679 0.12868Q1.00736 -0.75 2.25 -0.75L6.87891 -0.75Q7.32642 -0.749932 7.73976 -0.578713Q8.15309 -0.407494 8.46949 -0.0911714L15.0911 6.53045Q15.4075 6.84691 15.5787 7.26024Q15.7499 7.67358 15.75 8.12098L15.75 8.12109ZM14.25 8.12121Q14.25 7.97207 14.1929 7.83429Q14.1358 7.69651 14.0305 7.59111L7.40895 0.969609Q7.30348 0.864169 7.1657 0.807096Q7.02793 0.750023 6.87891 0.75L2.25 0.75Q1.62868 0.75 1.18934 1.18934Q0.75 1.62868 0.75 2.25L0.75 17.25Q0.75 17.8713 1.18934 18.3107Q1.62868 18.75 2.25 18.75L12.75 18.75Q13.3713 18.75 13.8107 18.3107Q14.25 17.8713 14.25 17.25L14.25 8.12109L14.25 8.12121Z" fill-rule="nonzero" transform="matrix(1 0 0 1 4.5 2.25)" fill="rgb(26, 26, 26)"/>
		<path d="M3.75 -0.75C3.33579 -0.75 3 -0.41421 3 0L3 5.625Q3 6.55698 3.65901 7.21599Q4.31802 7.875 5.25 7.875L10.875 7.875C11.2892 7.875 11.625 7.53921 11.625 7.125C11.625 6.71079 11.2892 6.375 10.875 6.375L5.25 6.375Q4.93934 6.375 4.71967 6.15533Q4.5 5.93566 4.5 5.625L4.5 0C4.5 -0.41421 4.16421 -0.75 3.75 -0.75ZM-0.75 10.875C-0.75 11.2892 -0.41421 11.625 0 11.625L7.5 11.625C7.91421 11.625 8.25 11.2892 8.25 10.875C8.25 10.4608 7.91421 10.125 7.5 10.125L0 10.125C-0.41421 10.125 -0.75 10.4608 -0.75 10.875ZM-0.75 14.625C-0.75 15.0392 -0.41421 15.375 0 15.375L7.5 15.375C7.91421 15.375 8.25 15.0392 8.25 14.625C8.25 14.2108 7.91421 13.875 7.5 13.875L0 13.875C-0.41421 13.875 -0.75 14.2108 -0.75 14.625Z" fill-rule="evenodd" transform="matrix(1 0 0 1 8.25 2.625)" fill="rgb(26, 26, 26)"/>
	</g>
</svg>
