<?xml version="1.0" encoding="utf-8" ?>
<svg xmlns="http://www.w3.org/2000/svg" xmlns:xlink="http://www.w3.org/1999/xlink" width="20" height="20" viewBox="0 0 20 20">
	<defs>
		<clipPath id="clipPath6066584228">
			<path d="M0 0L20 0L20 20L0 20L0 0Z" fill-rule="nonzero" transform="matrix(1 0 0 1 0 0)"/>
		</clipPath>
	</defs>
	<g clip-path="url(#clipPath6066584228)">
		<path d="M15.6771 13.0207L9.01971 0.657422C8.54784 -0.219141 7.29081 -0.219141 6.81854 0.657422L0.161508 13.0207C-0.0624957 13.4368 -0.0534878 13.8477 0.188531 14.2535C0.430551 14.6594 0.787819 14.8626 1.26034 14.8633L14.5764 14.8633C15.0493 14.8633 15.407 14.6604 15.6496 14.2544C15.8922 13.8483 15.9013 13.4371 15.6771 13.0207ZM7.91932 12.9492C7.70358 12.9492 7.51944 12.8729 7.36689 12.7204C7.21434 12.5678 7.13807 12.3837 7.13807 12.168C7.13807 11.9522 7.21434 11.7681 7.36689 11.6155C7.51944 11.463 7.70358 11.3867 7.91932 11.3867C8.13506 11.3867 8.3192 11.463 8.47175 11.6155C8.6243 11.7681 8.70057 11.9522 8.70057 12.168C8.70057 12.3837 8.6243 12.5678 8.47175 12.7204C8.3192 12.8729 8.13506 12.9492 7.91932 12.9492ZM8.76776 5.0918L8.54354 9.85742C8.54354 10.03 8.48252 10.1773 8.36048 10.2994C8.23844 10.4214 8.09113 10.4824 7.91854 10.4824C7.74595 10.4824 7.59864 10.4214 7.4766 10.2994C7.35456 10.1773 7.29354 10.03 7.29354 9.85742L7.06932 5.09375C7.0587 4.85383 7.13598 4.6467 7.30117 4.47237C7.46635 4.29805 7.66902 4.20973 7.90916 4.20742L7.91737 4.20742C8.15932 4.2073 8.36395 4.29462 8.53126 4.4694C8.69857 4.64418 8.77688 4.85243 8.7662 5.09414L8.76776 5.0918Z" fill-rule="nonzero" transform="matrix(1 0 0 1 1.86466 2.56836)" fill="rgb(255, 59, 48)"/>
	</g>
</svg>

