<svg width="20" height="20" viewBox="0 0 20 20" fill="none" xmlns="http://www.w3.org/2000/svg">
<path d="M4.16667 10H2.5L10 2.5L17.5 10H15.8333" stroke="currentColor" stroke-width="1.66667" stroke-linecap="round" stroke-linejoin="round"/>
<path d="M4.16602 10V15.8333C4.16602 16.2754 4.34161 16.6993 4.65417 17.0118C4.96673 17.3244 5.39065 17.5 5.83268 17.5H14.166C14.608 17.5 15.032 17.3244 15.3445 17.0118C15.6571 16.6993 15.8327 16.2754 15.8327 15.8333V10" stroke="currentColor" stroke-width="1.66667" stroke-linecap="round" stroke-linejoin="round"/>
<path d="M7.5 17.4997V12.4997C7.5 12.0576 7.6756 11.6337 7.98816 11.3212C8.30072 11.0086 8.72464 10.833 9.16667 10.833H10.8333C11.2754 10.833 11.6993 11.0086 12.0118 11.3212C12.3244 11.6337 12.5 12.0576 12.5 12.4997V17.4997" stroke="currentColor" stroke-width="1.66667" stroke-linecap="round" stroke-linejoin="round"/>
</svg>
