<svg width="20" height="20" viewBox="0 0 20 20" fill="none" xmlns="http://www.w3.org/2000/svg">
<path d="M16.6656 17.4326H7.08419L2.9937 17.4245C2.98187 17.4245 2.97006 17.4239 2.95829 17.4227C2.47296 17.3742 2.0242 17.1481 1.69468 16.7861C1.36283 16.4215 1.18005 15.9491 1.18005 15.4558V5.16843C1.18005 4.07843 2.06683 3.19165 3.15683 3.19165H16.6655C17.7555 3.19165 18.6423 4.07843 18.6423 5.16843V9.57298C18.6423 9.57836 18.6422 9.58376 18.6419 9.58911C18.6415 9.59877 18.6034 10.5993 18.9443 11.2583C19.0364 11.4364 18.9667 11.6555 18.7886 11.7476C18.6106 11.8397 18.3915 11.7701 18.2993 11.5919C17.8833 10.7877 17.9117 9.68485 17.9161 9.56579V5.16843C17.9161 4.47884 17.3551 3.91782 16.6655 3.91782H3.15685C2.46726 3.91782 1.90624 4.47884 1.90624 5.16843V15.4558C1.90624 16.0955 2.38126 16.6268 3.01401 16.6983L7.08493 16.7064H16.6656C17.3552 16.7064 17.9162 16.1453 17.9162 15.4558L17.9087 13.6261C17.9067 13.592 17.8777 13.2443 17.5269 12.7961L17.524 12.7923L17.0999 12.2359L14.8104 9.20625C14.8022 9.1955 14.0487 8.21305 13.1254 8.31692C12.3766 8.40118 11.6419 9.19902 11.0006 10.6242C10.6565 11.3887 10.3238 11.9575 9.98333 12.3634C9.63944 12.7732 9.28646 13.018 8.9042 13.1117C8.05609 13.3195 7.32119 12.7407 6.54314 12.1279L6.44436 12.0501C5.53508 11.3357 5.10157 11.4989 3.35198 13.2143C3.2088 13.3546 2.97891 13.3524 2.83853 13.2092C2.69814 13.066 2.70042 12.8361 2.84361 12.6957C3.75491 11.8023 4.35814 11.2753 4.93513 11.0496C5.58665 10.7948 6.1905 10.9272 6.89298 11.4792L6.99245 11.5575C7.655 12.0793 8.22722 12.53 8.73129 12.4064C9.23165 12.2838 9.77233 11.5839 10.3383 10.3262C11.1028 8.62742 12.0148 7.70845 13.0492 7.59474C14.3862 7.44796 15.3504 8.71592 15.3908 8.76997L17.6784 11.7969L18.1003 12.3505C18.6135 13.0074 18.6341 13.5544 18.6348 13.6147L18.6348 13.6172L18.6423 15.4543C18.6423 16.5458 17.7556 17.4326 16.6656 17.4326Z" fill="currentColor" stroke="currentColor" stroke-width="0.67"/>
<path d="M6.10016 8.72985C5.2735 8.72985 4.60095 8.05731 4.60095 7.23065C4.60095 6.40399 5.2735 5.73145 6.10016 5.73145C6.92682 5.73145 7.59936 6.40399 7.59936 7.23065C7.59936 8.05731 6.92684 8.72985 6.10016 8.72985ZM6.10016 6.45759C5.6739 6.45759 5.32712 6.80438 5.32712 7.23063C5.32712 7.65688 5.6739 8.00366 6.10016 8.00366C6.52641 8.00366 6.87319 7.65688 6.87319 7.23063C6.87319 6.80438 6.52643 6.45759 6.10016 6.45759Z" fill="currentColor" stroke="currentColor" stroke-width="0.67"/>
</svg>
