<svg width="200" height="200" viewBox="0 0 200 200" xmlns="http://www.w3.org/2000/svg">
<g clip-path="url(#clip0_2767_21054)">
<rect width="200" height="200" rx="100" fill="url(#paint0_linear_2767_21054)"/>
<rect x="96.8936" y="30" width="112" height="146" rx="6" transform="rotate(15 96.8936 30)" fill="url(#paint1_linear_2767_21054)"/>
<rect x="11" y="38" width="112" height="146" rx="6" transform="rotate(-10 11 38)" fill="url(#paint2_linear_2767_21054)"/>
<rect x="28.3721" y="84.6926" width="46" height="8" rx="4" transform="rotate(-10 28.3721 84.6926)" fill="white" fill-opacity="0.7"/>
<rect x="31.845" y="104.389" width="70" height="8" rx="4" transform="rotate(-10 31.845 104.389)" fill="white" fill-opacity="0.7"/>
<rect x="35.3181" y="124.085" width="94" height="8" rx="4" transform="rotate(-10 35.3181 124.085)" fill="white" fill-opacity="0.7"/>
<g filter="url(#filter0_d_2767_21054)">
<path fill-rule="evenodd" clip-rule="evenodd" d="M156 143C156 152.389 148.389 160 139 160C129.611 160 122 152.389 122 143C122 133.611 129.611 126 139 126C148.389 126 156 133.611 156 143ZM153.623 163.28C149.511 166.25 144.46 168 139 168C125.193 168 114 156.807 114 143C114 129.193 125.193 118 139 118C152.807 118 164 129.193 164 143C164 148.46 162.25 153.511 159.28 157.623L167.828 166.172C169.391 167.734 169.391 170.266 167.828 171.828C166.266 173.391 163.734 173.391 162.172 171.828L153.623 163.28Z" fill="white"/>
</g>
</g>
<defs>
<filter id="filter0_d_2767_21054" x="106" y="110" width="71" height="71" filterUnits="userSpaceOnUse" color-interpolation-filters="sRGB">
<feFlood flood-opacity="0" result="BackgroundImageFix"/>
<feColorMatrix in="SourceAlpha" type="matrix" values="0 0 0 0 0 0 0 0 0 0 0 0 0 0 0 0 0 0 127 0" result="hardAlpha"/>
<feOffset/>
<feGaussianBlur stdDeviation="4"/>
<feComposite in2="hardAlpha" operator="out"/>
<feColorMatrix type="matrix" values="0 0 0 0 0 0 0 0 0 0.384494 0 0 0 0 0.739411 0 0 0 0.24 0"/>
<feBlend mode="normal" in2="BackgroundImageFix" result="effect1_dropShadow_2767_21054"/>
<feBlend mode="normal" in="SourceGraphic" in2="effect1_dropShadow_2767_21054" result="shape"/>
</filter>
<linearGradient id="paint0_linear_2767_21054" x1="100" y1="0" x2="100" y2="200" gradientUnits="userSpaceOnUse">
<stop stop-color="#E3EFFD"/>
<stop offset="1" stop-color="#F2F8FF"/>
</linearGradient>
<linearGradient id="paint1_linear_2767_21054" x1="208.894" y1="30" x2="63.7721" y2="80.1446" gradientUnits="userSpaceOnUse">
<stop stop-color="#AECCEF"/>
<stop offset="1" stop-color="#88B6EA"/>
</linearGradient>
<linearGradient id="paint2_linear_2767_21054" x1="123" y1="38" x2="-22.1214" y2="88.1446" gradientUnits="userSpaceOnUse">
<stop stop-color="#DDEDFF"/>
<stop offset="1" stop-color="#BCD9FB"/>
</linearGradient>
<clipPath id="clip0_2767_21054">
<rect width="200" height="200" rx="100" fill="white"/>
</clipPath>
</defs>
</svg>
