<svg width="200" height="200" viewBox="0 0 200 200" fill="none" xmlns="http://www.w3.org/2000/svg">
<rect width="200" height="200" rx="100" fill="url(#paint0_linear_2269_12763)"/>
<rect x="51" y="64" width="149" height="100" rx="6" fill="url(#paint1_linear_2269_12763)"/>
<rect y="36" width="149" height="100" rx="6" fill="url(#paint2_linear_2269_12763)"/>
<rect x="27" y="62" width="46" height="8" rx="4" fill="white" fill-opacity="0.7"/>
<rect x="27" y="82" width="70" height="8" rx="4" fill="white" fill-opacity="0.7"/>
<rect x="27" y="102" width="94" height="8" rx="4" fill="white" fill-opacity="0.7"/>
<g filter="url(#filter0_d_2269_12763)">
<path fill-rule="evenodd" clip-rule="evenodd" d="M156.928 132H161.6C163.84 132 164.96 132 165.816 132.436C166.569 132.819 167.181 133.431 167.564 134.184C168 135.04 168 136.16 168 138.4V161.6C168 163.84 168 164.96 167.564 165.816C167.181 166.569 166.569 167.181 165.816 167.564C164.96 168 163.84 168 161.6 168H120.4C118.16 168 117.04 168 116.184 167.564C115.431 167.181 114.819 166.569 114.436 165.816C114 164.96 114 163.84 114 161.6V138.4C114 136.16 114 135.04 114.436 134.184C114.819 133.431 115.431 132.819 116.184 132.436C117.04 132 118.16 132 120.4 132H125.072C125.826 124.143 132.446 118 140.5 118H141.5C149.554 118 156.174 124.143 156.928 132ZM148.85 132C148.155 128.577 145.128 126 141.5 126H140.5C136.872 126 133.845 128.577 133.15 132H148.85Z" fill="white"/>
</g>
<defs>
<filter id="filter0_d_2269_12763" x="106" y="110" width="70" height="66" filterUnits="userSpaceOnUse" color-interpolation-filters="sRGB">
<feFlood flood-opacity="0" result="BackgroundImageFix"/>
<feColorMatrix in="SourceAlpha" type="matrix" values="0 0 0 0 0 0 0 0 0 0 0 0 0 0 0 0 0 0 127 0" result="hardAlpha"/>
<feOffset/>
<feGaussianBlur stdDeviation="4"/>
<feComposite in2="hardAlpha" operator="out"/>
<feColorMatrix type="matrix" values="0 0 0 0 0 0 0 0 0 0.384494 0 0 0 0 0.739411 0 0 0 0.24 0"/>
<feBlend mode="normal" in2="BackgroundImageFix" result="effect1_dropShadow_2269_12763"/>
<feBlend mode="normal" in="SourceGraphic" in2="effect1_dropShadow_2269_12763" result="shape"/>
</filter>
<linearGradient id="paint0_linear_2269_12763" x1="100" y1="0" x2="100" y2="200" gradientUnits="userSpaceOnUse">
<stop stop-color="#E3EFFD"/>
<stop offset="1" stop-color="#F2F8FF"/>
</linearGradient>
<linearGradient id="paint1_linear_2269_12763" x1="200" y1="64" x2="51" y2="164" gradientUnits="userSpaceOnUse">
<stop stop-color="#AECCEF"/>
<stop offset="1" stop-color="#88B6EA"/>
</linearGradient>
<linearGradient id="paint2_linear_2269_12763" x1="149" y1="36" x2="8.02243e-06" y2="136" gradientUnits="userSpaceOnUse">
<stop stop-color="#DDEDFF"/>
<stop offset="1" stop-color="#BCD9FB"/>
</linearGradient>
</defs>
</svg>
