<svg width="16" height="16" viewBox="0 0 16 16" xmlns="http://www.w3.org/2000/svg">
<path d="M6 3.99983C6 3.43183 6.65733 3.13517 7.082 3.47783L7.138 3.5285L11.138 7.5285C11.2528 7.6433 11.3217 7.79603 11.3319 7.95805C11.3421 8.12006 11.2928 8.28023 11.1933 8.4085L11.138 8.47117L7.138 12.4712L7.07533 12.5265L7.024 12.5625L6.96 12.5985L6.936 12.6098L6.89133 12.6278L6.81933 12.6492L6.784 12.6558L6.744 12.6625L6.706 12.6652L6.66667 12.6665L6.62733 12.6652L6.58867 12.6618L6.54867 12.6558L6.514 12.6492L6.442 12.6278L6.39733 12.6098L6.30933 12.5632L6.24933 12.5198L6.19533 12.4712L6.14 12.4085L6.104 12.3572L6.068 12.2932L6.05667 12.2692L6.03867 12.2245L6.01733 12.1525L6.01067 12.1172L6.004 12.0772L6.00133 12.0392L6 3.99983Z" fill="currentColor"/>
</svg>
