<svg width="20" height="20" viewBox="0 0 20 20" fill="none" xmlns="http://www.w3.org/2000/svg">
<path d="M9.82917 17.4998H4.16667C3.72464 17.4998 3.30072 17.3242 2.98816 17.0117C2.67559 16.6991 2.5 16.2752 2.5 15.8332V5.83317C2.5 5.39114 2.67559 4.96722 2.98816 4.65466C3.30072 4.3421 3.72464 4.1665 4.16667 4.1665H14.1667C14.6087 4.1665 15.0326 4.3421 15.3452 4.65466C15.6577 4.96722 15.8333 5.39114 15.8333 5.83317V9.1665" stroke="currentColor" stroke-width="1.67" stroke-linecap="round" stroke-linejoin="round"/>
<path d="M11.6665 14.9998C11.6665 15.8839 12.0177 16.7317 12.6428 17.3569C13.2679 17.982 14.1158 18.3332 14.9998 18.3332C15.8839 18.3332 16.7317 17.982 17.3569 17.3569C17.982 16.7317 18.3332 15.8839 18.3332 14.9998C18.3332 14.1158 17.982 13.2679 17.3569 12.6428C16.7317 12.0177 15.8839 11.6665 14.9998 11.6665C14.1158 11.6665 13.2679 12.0177 12.6428 12.6428C12.0177 13.2679 11.6665 14.1158 11.6665 14.9998Z" stroke="currentColor" stroke-width="1.67" stroke-linecap="round" stroke-linejoin="round"/>
<path d="M12.5 2.5V5.83333" stroke="currentColor" stroke-width="1.67" stroke-linecap="round" stroke-linejoin="round"/>
<path d="M5.8335 2.5V5.83333" stroke="currentColor" stroke-width="1.67" stroke-linecap="round" stroke-linejoin="round"/>
<path d="M2.5 9.1665H15.8333" stroke="currentColor" stroke-width="1.67" stroke-linecap="round" stroke-linejoin="round"/>
<path d="M15 13.7466V14.9999L15.8333 15.8332" stroke="currentColor" stroke-width="1.67" stroke-linecap="round" stroke-linejoin="round"/>
</svg>
