<svg width="20" height="20" viewBox="0 0 20 20" xmlns="http://www.w3.org/2000/svg">
<path d="M12.2054 3.40088C12.2277 3.49316 12.2716 3.57885 12.3333 3.651C12.395 3.72315 12.4729 3.77971 12.5606 3.81609C12.6483 3.85247 12.7433 3.86764 12.838 3.86036C12.9327 3.85309 13.0243 3.82357 13.1054 3.77421C15.1379 2.53671 17.4637 4.86171 16.2262 6.89421C16.1769 6.97527 16.1473 7.06682 16.14 7.16144C16.1327 7.25605 16.1478 7.35107 16.1841 7.43875C16.2203 7.52644 16.2768 7.60433 16.3489 7.66609C16.4209 7.72786 16.5065 7.77175 16.5987 7.79421C18.9112 8.35505 18.9112 11.6442 16.5987 12.2059C16.5064 12.2282 16.4207 12.2721 16.3486 12.3338C16.2765 12.3955 16.2199 12.4734 16.1835 12.5611C16.1471 12.6488 16.132 12.7438 16.1392 12.8385C16.1465 12.9332 16.176 13.0248 16.2254 13.1059C17.4629 15.1384 15.1379 17.4642 13.1054 16.2267C13.0243 16.1774 12.9328 16.1478 12.8382 16.1405C12.7435 16.1332 12.6485 16.1482 12.5608 16.1845C12.4732 16.2208 12.3953 16.2773 12.3335 16.3494C12.2717 16.4214 12.2279 16.507 12.2054 16.5992C11.6446 18.9117 8.35539 18.9117 7.79372 16.5992C7.77137 16.5069 7.72755 16.4212 7.66583 16.3491C7.60411 16.2769 7.52623 16.2204 7.43853 16.184C7.35083 16.1476 7.25578 16.1324 7.16111 16.1397C7.06645 16.147 6.97483 16.1765 6.89372 16.2259C4.86122 17.4634 2.53539 15.1384 3.77289 13.1059C3.82225 13.0248 3.85179 12.9333 3.85912 12.8387C3.86645 12.744 3.85135 12.649 3.81506 12.5613C3.77877 12.4737 3.7223 12.3958 3.65025 12.334C3.5782 12.2722 3.49259 12.2283 3.40039 12.2059C1.08789 11.645 1.08789 8.35588 3.40039 7.79421C3.49267 7.77185 3.57836 7.72803 3.65051 7.66631C3.72266 7.60459 3.77923 7.52672 3.81561 7.43902C3.85198 7.35132 3.86715 7.25627 3.85987 7.1616C3.8526 7.06693 3.82308 6.97532 3.77372 6.89421C2.53622 4.86171 4.86122 2.53588 6.89372 3.77338C6.9747 3.82311 7.06629 3.85296 7.16102 3.86048C7.25575 3.86799 7.35091 3.85297 7.43871 3.81663C7.52651 3.78029 7.60446 3.72367 7.66616 3.6514C7.72787 3.57914 7.77158 3.49329 7.79372 3.40088C8.35456 1.08838 11.6437 1.08838 12.2054 3.40088ZM9.99956 7.50005C9.33652 7.50005 8.70063 7.76344 8.23179 8.23228C7.76295 8.70112 7.49956 9.337 7.49956 10C7.49956 10.6631 7.76295 11.299 8.23179 11.7678C8.70063 12.2367 9.33652 12.5 9.99956 12.5C10.6626 12.5 11.2985 12.2367 11.7673 11.7678C12.2362 11.299 12.4996 10.6631 12.4996 10C12.4996 9.337 12.2362 8.70112 11.7673 8.23228C11.2985 7.76344 10.6626 7.50005 9.99956 7.50005Z" fill="currentColor"/>
</svg>
