<svg width="20" height="20" viewBox="0 0 20 20" xmlns="http://www.w3.org/2000/svg">
<path d="M10.5891 1.91086L18.0891 9.41086C18.6141 9.93586 18.2424 10.8334 17.5 10.8334H16.6666V15.8334C16.6666 16.4964 16.4032 17.1323 15.9344 17.6011C15.4655 18.07 14.8297 18.3334 14.1666 18.3334H13.3333V12.5C13.3333 11.8623 13.0897 11.2488 12.6522 10.7848C12.2147 10.3209 11.6165 10.0416 10.98 10.0042L10.8333 10H9.16662C8.50358 10 7.86769 10.2634 7.39885 10.7323C6.93001 11.2011 6.66662 11.837 6.66662 12.5V18.3334H5.83328C5.17024 18.3334 4.53436 18.07 4.06552 17.6011C3.59668 17.1323 3.33328 16.4964 3.33328 15.8334V10.8334H2.49995C1.75828 10.8334 1.38578 9.93586 1.91078 9.41086L9.41078 1.91086C9.56706 1.75463 9.77898 1.66687 9.99995 1.66687C10.2209 1.66687 10.4328 1.75463 10.5891 1.91086ZM10.8333 11.6667C11.0543 11.6667 11.2663 11.7545 11.4225 11.9108C11.5788 12.0671 11.6666 12.279 11.6666 12.5V18.3334H8.33328V12.5C8.33331 12.2959 8.40825 12.0989 8.54388 11.9464C8.67951 11.7939 8.86641 11.6964 9.06912 11.6725L9.16662 11.6667H10.8333Z" fill="currentColor"/>
</svg>
