<svg width="20" height="20" viewBox="0 0 20 20" xmlns="http://www.w3.org/2000/svg">
<path d="M15.8327 1.6665C16.4704 1.66647 17.0839 1.91011 17.5479 2.34757C18.0119 2.78504 18.2911 3.38326 18.3285 4.01984L18.3327 4.1665V15.8332C18.3327 16.4708 18.0891 17.0844 17.6516 17.5484C17.2141 18.0123 16.6159 18.2916 15.9793 18.329L15.8327 18.3332H4.16602C3.5316 18.3331 2.92095 18.0918 2.45782 17.6582C1.99469 17.2246 1.71372 16.6312 1.67185 15.9982L1.66602 15.8332V4.1665C1.66598 3.52883 1.90962 2.91524 2.34709 2.45129C2.78455 1.98733 3.38277 1.70808 4.01935 1.67067L4.16602 1.6665H15.8327ZM10.8327 11.6665H9.16602L9.06852 11.6723C8.86597 11.6964 8.6793 11.794 8.54386 11.9465C8.40842 12.099 8.33361 12.2959 8.33361 12.4998C8.33361 12.7038 8.40842 12.9007 8.54386 13.0532C8.6793 13.2057 8.86597 13.3032 9.06852 13.3273L9.16602 13.3332H10.8327L10.9302 13.3273C11.1327 13.3032 11.3194 13.2057 11.4548 13.0532C11.5903 12.9007 11.6651 12.7038 11.6651 12.4998C11.6651 12.2959 11.5903 12.099 11.4548 11.9465C11.3194 11.794 11.1327 11.6964 10.9302 11.6723L10.8327 11.6665ZM12.4993 9.1665H7.49935L7.40185 9.17234C7.19931 9.19643 7.01264 9.29397 6.87719 9.44647C6.74175 9.59898 6.66694 9.79587 6.66694 9.99984C6.66694 10.2038 6.74175 10.4007 6.87719 10.5532C7.01264 10.7057 7.19931 10.8032 7.40185 10.8273L7.49935 10.8332H12.4993L12.5968 10.8273C12.7994 10.8032 12.9861 10.7057 13.1215 10.5532C13.2569 10.4007 13.3318 10.2038 13.3318 9.99984C13.3318 9.79587 13.2569 9.59898 13.1215 9.44647C12.9861 9.29397 12.7994 9.19643 12.5968 9.17234L12.4993 9.1665ZM11.666 6.6665H8.33268L8.23518 6.67234C8.03264 6.69643 7.84597 6.79397 7.71053 6.94647C7.57508 7.09898 7.50028 7.29587 7.50028 7.49984C7.50028 7.70381 7.57508 7.90069 7.71053 8.0532C7.84597 8.20571 8.03264 8.30325 8.23518 8.32734L8.33268 8.33317H11.666L11.7635 8.32734C11.9661 8.30325 12.1527 8.20571 12.2882 8.0532C12.4236 7.90069 12.4984 7.70381 12.4984 7.49984C12.4984 7.29587 12.4236 7.09898 12.2882 6.94647C12.1527 6.79397 11.9661 6.69643 11.7635 6.67234L11.666 6.6665Z" fill="currentColor"/>
</svg>
