<svg width="20" height="20" viewBox="0 0 20 20" xmlns="http://www.w3.org/2000/svg">
<path d="M10.0007 1.6665C10.8247 1.6665 11.6303 1.91087 12.3155 2.36871C13.0007 2.82655 13.5348 3.4773 13.8501 4.23866C14.1655 5.00002 14.248 5.83779 14.0873 6.64605C13.9265 7.4543 13.5296 8.19673 12.9469 8.77945C12.3642 9.36217 11.6218 9.759 10.8135 9.91978C10.0053 10.0805 9.1675 9.99803 8.40614 9.68267C7.64478 9.3673 6.99403 8.83325 6.53619 8.14805C6.07836 7.46284 5.83398 6.65726 5.83398 5.83317L5.83815 5.65234C5.88475 4.57963 6.34366 3.56632 7.11917 2.82372C7.89468 2.08112 8.92693 1.66657 10.0007 1.6665Z" fill="currentColor"/>
<path d="M11.666 11.6665C12.7711 11.6665 13.8309 12.1055 14.6123 12.8869C15.3937 13.6683 15.8327 14.7281 15.8327 15.8332V16.6665C15.8327 17.1085 15.6571 17.5325 15.3445 17.845C15.032 18.1576 14.608 18.3332 14.166 18.3332H5.83268C5.39065 18.3332 4.96673 18.1576 4.65417 17.845C4.34161 17.5325 4.16602 17.1085 4.16602 16.6665V15.8332C4.16602 14.7281 4.605 13.6683 5.3864 12.8869C6.16781 12.1055 7.22761 11.6665 8.33268 11.6665H11.666Z" fill="currentColor"/>
</svg>
