<svg width="20" height="20" viewBox="0 0 20 20" fill="none" xmlns="http://www.w3.org/2000/svg">
<path d="M16.684 2.16394H3.20604C1.79004 2.16394 0.644043 3.31194 0.644043 4.72594V14.6239C0.644043 16.0399 1.79204 17.1859 3.20604 17.1859H16.684C18.1 17.1859 19.246 16.0379 19.246 14.6239V4.72594C19.246 3.31194 18.1 2.16394 16.684 2.16394ZM5.89204 5.44794C6.61204 5.44794 7.19604 6.03194 7.19604 6.75194C7.19604 7.47194 6.61204 8.05594 5.89204 8.05594C5.17204 8.05594 4.58804 7.47194 4.58804 6.75194C4.58804 6.03194 5.17204 5.44794 5.89204 5.44794ZM17.954 12.4639C17.786 12.5939 17.544 12.5599 17.416 12.3919L14.542 8.59594C14.534 8.58394 13.732 7.55594 12.758 7.65394C11.966 7.74394 11.188 8.58794 10.508 10.0959C9.78804 11.6979 9.08204 12.5339 8.28804 12.7299C7.38804 12.9479 6.61204 12.3379 5.79004 11.6879L5.68604 11.6059C4.72404 10.8519 4.26404 11.0239 2.41204 12.8379C2.33804 12.9119 2.24004 12.9479 2.14404 12.9479C2.04404 12.9479 1.94404 12.9099 1.87004 12.8319C1.72204 12.6799 1.72404 12.4359 1.87604 12.2879C3.55804 10.6399 4.58604 9.76594 6.16004 11.0019L6.26604 11.0839C6.96804 11.6379 7.57404 12.1159 8.10604 11.9839C8.63604 11.8539 9.20804 11.1139 9.80804 9.78194C10.618 7.98394 11.582 7.00994 12.678 6.88994C14.088 6.73994 15.114 8.07594 15.156 8.13394L18.026 11.9259C18.154 12.0959 18.122 12.3359 17.954 12.4639Z" fill="currentColor"  />
</svg>
